<mxfile host="app.diagrams.net" modified="2024-06-28T12:59:50.633Z" agent="Mozilla/5.0 (Windows NT 10.0; Win64; x64) AppleWebKit/537.36 (KHTML, like Gecko) Chrome/126.0.0.0 Safari/537.36" version="24.6.4" etag="4g1PrCfuVpf6_U4E1JXN" type="github">
  <diagram name="PÃ¡gina-1" id="U7RZboldsctPlhgi6J6k">
    <mxGraphModel>
      <root>
        <mxCell id="0" />
        <mxCell id="1" parent="0" />
      </root>
    </mxGraphModel>
  </diagram>
</mxfile>
